<svg xmlns="http://www.w3.org/2000/svg" width="32" height="24" viewBox="0 0 32 24">
  <rect width="32" height="8" fill="#012169"/>
  <rect width="32" height="8" y="8" fill="#ffffff"/>
  <rect width="32" height="8" y="16" fill="#c8102e"/>
  <polygon points="0,0 11,0 0,8" fill="#ffffff"/>
  <polygon points="0,24 11,24 0,16" fill="#ffffff"/>
  <polygon points="21,0 32,0 32,8" fill="#ffffff"/>
  <polygon points="21,24 32,24 32,16" fill="#ffffff"/>
  <polygon points="0,0 5,0 16,12 11,12" fill="#c8102e"/>
  <polygon points="16,12 21,12 32,0 27,0" fill="#c8102e"/>
  <polygon points="0,24 5,24 16,12 11,12" fill="#c8102e"/>
  <polygon points="16,12 21,12 32,24 27,24" fill="#c8102e"/>
  <rect x="13" y="0" width="6" height="24" fill="#ffffff"/>
  <rect x="0" y="9" width="32" height="6" fill="#ffffff"/>
  <rect x="14" y="0" width="4" height="24" fill="#c8102e"/>
  <rect x="0" y="10" width="32" height="4" fill="#c8102e"/>
</svg>
